# xmcd CD Database Entry
#
# Track frame offsets:
# 182
# 33650
# 74095
# 92927
# 126922
# 172170
# 199335
#
# Disc length: 3139 seconds
#
# Revision: 1
# Processed by: cddbd v1.4PL0 Copyright (c) Steve Scherf et al.
# Submitted via: tcd 2.0b
#
DISCID=710c4107
DTITLE=Holst - The Planets
DYEAR=1900
DGENRE=
TTITLE0=Mars- Bringer Of War
TTITLE1=Venus - Bringer Of Peace
TTITLE2=Mercury - The Winged Messenger
TTITLE3=Jupiter - Bringer Of Jollity
TTITLE4=Saturn - Bringer Of Old Age
TTITLE5=Uranus - Magician
TTITLE6=Neptune - Mystic
EXTD=
EXTT0=
EXTT1=
EXTT2=
EXTT3=
EXTT4=
EXTT5=
EXTT6=
PLAYORDER=
